<svg width="0" height="0" class="hidden">
  <symbol fill="none" xmlns="http://www.w3.org/2000/svg" viewBox="0 0 160 48" id="rustore">
    <g clip-path="url(#clip0_15_472)">
      <path d="M0 6.857C0 3.07 3.016 0 6.737 0h146.527C156.984 0 160 3.07 160 6.857v34.286c0 3.787-3.016 6.857-6.736 6.857H6.737C3.017 48 0 44.93 0 41.143V6.857Z" fill="black"></path>
      <path fill-rule="evenodd" clip-rule="evenodd" d="M153.264.923H6.737c-3.04 0-5.711 2.547-5.711 5.934v34.286c0 3.387 2.672 5.934 5.71 5.934h146.528c3.039 0 5.71-2.547 5.71-5.934V6.857c0-3.387-2.671-5.934-5.71-5.934ZM6.737 0C3.017 0 0 3.07 0 6.857v34.286C0 44.93 3.016 48 6.737 48h146.527c3.72 0 6.736-3.07 6.736-6.857V6.857C160 3.07 156.984 0 153.264 0H6.737Z" fill="#A6A6A6"></path>
      <path d="M12.25 37.75C14.498 40 18.12 40 25.36 40h1.28c7.24 0 10.861 0 13.11-2.25C42 35.502 42 31.88 42 24.64v-1.28c0-7.24 0-10.861-2.25-13.11C37.502 8 33.88 8 26.64 8h-1.28c-7.24 0-10.861 0-13.11 2.25C10 12.498 10 16.12 10 23.36v1.28c0 7.24 0 10.861 2.25 13.11Z" fill="#0077FF"></path>
      <path fill-rule="evenodd" clip-rule="evenodd" d="m34.096 29.97-2.135-.56a.646.646 0 0 1-.448-.604l-.266-8.26c-.077-1.094-.85-1.963-1.656-2.22a.106.106 0 0 0-.12.047.1.1 0 0 0 .02.13c.2.162.748.691.748 1.604l-.001 10.8c0 1.043-.938 1.807-1.904 1.554l-2.168-.57a.652.652 0 0 1-.416-.595l-.267-8.26c-.077-1.094-.849-1.964-1.655-2.22a.106.106 0 0 0-.121.046.1.1 0 0 0 .021.13c.2.163.748.692.748 1.604l-.002 9.003h.002v1.798c0 1.043-.938 1.808-1.905 1.554l-6.123-1.608C15.597 33.119 15 32.319 15 31.401V20.584c0-1.043.937-1.808 1.904-1.554l3.858 1.013v-1.95c0-1.043.938-1.807 1.905-1.553l3.857 1.013v-1.95c0-1.043.938-1.808 1.905-1.554l6.123 1.608c.851.224 1.448 1.024 1.448 1.942v10.817c0 1.043-.937 1.808-1.904 1.554Z" fill="white"></path>
      <path d="M63 38h-2.809l-4.456-5.702h-2.344V38H51V23h5.756c1.114 0 2.112.199 2.995.596.882.397 1.562.95 2.042 1.66.495.694.743 1.496.743 2.404 0 1.134-.38 2.106-1.138 2.915-.758.794-1.771 1.319-3.04 1.574L63 38Zm-9.61-12.979v5.277h3.366c.99 0 1.788-.241 2.391-.723.619-.497.928-1.135.928-1.915s-.309-1.412-.928-1.894c-.603-.496-1.4-.745-2.39-.745H53.39ZM68.386 39c-.833 0-1.583-.205-2.25-.615a4.436 4.436 0 0 1-1.568-1.73C64.19 35.91 64 35.075 64 34.15V27h2.227v6.968c0 .895.25 1.624.75 2.186.5.561 1.144.842 1.932.842.818 0 1.5-.288 2.045-.865.546-.577.819-1.298.819-2.163V27H74v11.772h-1.591l-.523-1.776a4.011 4.011 0 0 1-1.5 1.48 3.936 3.936 0 0 1-2 .524ZM82.794 39c-1.409 0-2.636-.368-3.681-1.103-1.031-.75-1.735-1.766-2.113-3.046l2.156-.353c.422.824.923 1.434 1.503 1.832.581.382 1.293.574 2.135.574.857 0 1.554-.192 2.091-.574.537-.398.806-.935.806-1.611 0-.5-.152-.92-.457-1.258-.29-.339-.661-.61-1.111-.817a20.136 20.136 0 0 0-1.765-.684c-.973-.324-1.771-.647-2.396-.971a4.59 4.59 0 0 1-1.59-1.368c-.42-.604-.631-1.369-.631-2.295 0-.869.21-1.626.631-2.274a4.233 4.233 0 0 1 1.786-1.522c.756-.354 1.598-.53 2.527-.53 1.293 0 2.403.346 3.333 1.037.93.677 1.59 1.611 1.982 2.803l-2.113.353c-.29-.677-.704-1.192-1.242-1.545-.537-.368-1.168-.552-1.894-.552-.785 0-1.43.192-1.94.574-.507.368-.762.876-.762 1.523 0 .486.146.897.436 1.236.305.338.675.61 1.111.817.45.206 1.046.44 1.786.706.944.323 1.728.654 2.353.993a4.451 4.451 0 0 1 1.612 1.39c.435.603.653 1.361.653 2.273 0 .883-.232 1.656-.697 2.318-.45.662-1.075 1.176-1.873 1.544-.785.353-1.663.53-2.636.53ZM97 37.066 96.797 39H94.74c-1.22 0-2.146-.3-2.78-.9-.632-.6-.949-1.461-.949-2.586V29.33H89v-1.957h2.011l.61-3.373h1.605v3.373h3.571v1.957h-3.572v6.184c0 1.035.506 1.552 1.515 1.552H97ZM105 39c-1.158 0-2.19-.253-3.098-.76a5.46 5.46 0 0 1-2.133-2.123c-.512-.908-.769-1.944-.769-3.106s.257-2.197.77-3.106a5.46 5.46 0 0 1 2.132-2.123c.908-.521 1.94-.782 3.098-.782s2.19.26 3.098.782a5.454 5.454 0 0 1 2.133 2.123c.512.909.769 1.944.769 3.106s-.257 2.198-.769 3.106a5.454 5.454 0 0 1-2.133 2.123c-.908.507-1.94.76-3.098.76Zm0-2.011c1.114 0 2.014-.365 2.704-1.095.703-.73 1.055-1.691 1.055-2.883s-.352-2.153-1.055-2.883c-.69-.744-1.59-1.117-2.704-1.117s-2.014.373-2.703 1.117c-.689.73-1.033 1.691-1.033 2.883 0 1.177.344 2.138 1.033 2.883.689.73 1.589 1.095 2.703 1.095ZM113 38V27h1.626l.481 1.575c.351-.554.787-.95 1.305-1.192.519-.255 1.138-.383 1.855-.383h.55l.183 2h-1.283c-.823 0-1.442.22-1.854.66-.412.44-.619 1.035-.619 1.787V38H113ZM132 32.922c0 .298-.007.529-.022.693h-9.669c.121 1.027.529 1.847 1.223 2.458.694.61 1.578.916 2.649.916.74 0 1.396-.142 1.97-.425.588-.298 1.034-.685 1.336-1.162l2.083.335a4.972 4.972 0 0 1-2.197 2.414c-.995.566-2.105.849-3.327.849-1.162 0-2.204-.253-3.125-.76a5.583 5.583 0 0 1-2.151-2.145c-.514-.909-.77-1.937-.77-3.084 0-1.162.256-2.197.77-3.106a5.46 5.46 0 0 1 2.128-2.123c.906-.521 1.939-.782 3.103-.782 1.147 0 2.172.26 3.078.782a5.424 5.424 0 0 1 2.152 2.123c.513.894.769 1.9.769 3.017Zm-5.999-3.978c-.891 0-1.661.26-2.311.782-.634.522-1.056 1.222-1.268 2.1h7.156c-.197-.863-.619-1.556-1.268-2.077-.635-.537-1.404-.805-2.309-.805ZM54.194 17c-.8 0-1.52-.17-2.158-.508a3.845 3.845 0 0 1-1.503-1.434c-.355-.61-.533-1.299-.533-2.063 0-.766.178-1.45.533-2.053.364-.61.86-1.085 1.491-1.423.639-.346 1.358-.519 2.158-.519.864 0 1.632.199 2.303.596.679.39 1.163.92 1.454 1.589l-1.236.176a2.324 2.324 0 0 0-1.006-.96 3.065 3.065 0 0 0-1.479-.353c-.566 0-1.07.125-1.515.375-.436.25-.78.6-1.03 1.049-.243.441-.364.949-.364 1.523 0 .58.121 1.096.364 1.544.25.442.598.787 1.042 1.038.445.25.954.375 1.527.375.566 0 1.067-.118 1.504-.353a2.48 2.48 0 0 0 1.018-1.016L58 14.76c-.307.684-.804 1.229-1.49 1.633-.688.405-1.46.607-2.316.607ZM64 17h-1.437l-2.127-2.484h-.345V17H59v-6h1.091v2.425h.334L62.463 11h1.314l-2.472 2.901L64 17ZM66.653 11c.726 0 1.296.235 1.712.704.423.462.635 1.11.635 1.944v3.24h-.794l-.26-.905c-.19.29-.443.533-.76.726-.318.194-.7.291-1.145.291-.393 0-.745-.078-1.055-.235a1.791 1.791 0 0 1-.725-.648c-.174-.283-.261-.6-.261-.95 0-.543.22-.979.658-1.307.438-.327 1.073-.491 1.904-.491h1.327c-.03-.455-.159-.805-.386-1.05-.226-.254-.529-.38-.907-.38-.287 0-.54.067-.76.2-.218.135-.385.31-.498.526l-1.032-.168a1.99 1.99 0 0 1 .873-1.095c.431-.268.922-.402 1.474-.402Zm-.374 5.073c.476 0 .862-.153 1.156-.459.303-.312.454-.74.454-1.284v-.067h-1.293c-.982 0-1.474.29-1.474.871 0 .283.106.51.318.682.212.171.491.257.839.257ZM73.814 14.818c-.194.085-.424.151-.69.197a4.58 4.58 0 0 1-.787.07c-.751 0-1.328-.201-1.732-.603-.403-.403-.605-.971-.605-1.706V11h1.186v1.776c0 .858.432 1.288 1.296 1.288.525 0 .968-.09 1.332-.267V11H75v6h-1.186v-2.182ZM78.653 11c.726 0 1.296.235 1.712.704.423.462.635 1.11.635 1.944v3.24h-.794l-.26-.905c-.19.29-.443.533-.76.726-.318.194-.7.291-1.145.291-.393 0-.745-.078-1.055-.235a1.791 1.791 0 0 1-.725-.648c-.174-.283-.261-.6-.261-.95 0-.543.22-.979.658-1.307.438-.327 1.073-.491 1.904-.491h1.327c-.03-.455-.159-.805-.386-1.05-.226-.254-.529-.38-.907-.38-.287 0-.54.067-.76.2-.218.135-.385.31-.498.526l-1.032-.168a1.99 1.99 0 0 1 .873-1.095c.431-.268.922-.402 1.474-.402Zm-.374 5.073c.476 0 .862-.153 1.156-.459.303-.312.454-.74.454-1.284v-.067h-1.293c-.982 0-1.474.29-1.474.871 0 .283.106.51.318.682.212.171.491.257.839.257ZM83.875 17H82v-5.729h1.228v4.51h.194l2.703-4.51H88V17h-1.228v-4.499h-.194L83.875 17Zm1.138-6.47c-.56 0-1.03-.127-1.41-.378-.37-.258-.59-.642-.659-1.152h1.034c.044.236.151.417.324.543.18.118.418.177.71.177.294 0 .527-.059.7-.177A.763.763 0 0 0 86.033 9h1.048c-.078.51-.306.894-.685 1.152-.371.252-.832.377-1.384.377ZM91.645 17h-1.29v-4.956H88V11h6v1.044h-2.355V17ZM100 13.96c0 .15-.004.265-.011.347h-4.834c.06.514.264.924.611 1.23.347.305.789.457 1.325.457.37 0 .698-.07.985-.212.294-.149.517-.342.667-.58l1.042.167a2.486 2.486 0 0 1-1.098 1.206 3.308 3.308 0 0 1-1.664.425 3.186 3.186 0 0 1-1.563-.38 2.789 2.789 0 0 1-1.075-1.073A3.08 3.08 0 0 1 94 14.006c0-.581.128-1.1.385-1.553a2.732 2.732 0 0 1 1.064-1.062c.453-.26.97-.391 1.551-.391.574 0 1.087.13 1.54.391.46.253.819.607 1.075 1.062.257.446.385.95.385 1.508Zm-3-1.988c-.445 0-.83.13-1.155.391-.317.26-.528.61-.634 1.05h3.578a1.8 1.8 0 0 0-.634-1.039c-.317-.268-.702-.402-1.155-.402ZM105.563 17H104v-6h1.024v4.723h.161L107.438 11H109v6h-1.024v-4.712h-.161L105.563 17ZM113.877 13.938c.323.09.591.254.804.492.213.231.319.518.319.86 0 .32-.099.611-.296.872-.197.253-.48.458-.851.614-.362.15-.784.224-1.264.224-.647 0-1.202-.142-1.667-.425-.465-.29-.772-.677-.922-1.162l1.076-.167c.26.536.76.804 1.501.804.41 0 .721-.07.934-.212a.705.705 0 0 0 .331-.614.65.65 0 0 0-.308-.56c-.197-.14-.516-.211-.957-.211h-.804v-.961h.804c.378 0 .666-.067.863-.202.205-.134.307-.312.307-.536 0-.238-.11-.432-.331-.58-.213-.15-.477-.224-.792-.224-.307 0-.583.07-.827.212-.245.141-.43.335-.556.581l-1.076-.179c.182-.499.493-.882.934-1.15.449-.276.97-.414 1.561-.414.425 0 .807.07 1.146.212.347.142.615.34.804.593.197.253.295.536.295.849 0 .32-.094.592-.283.815-.189.224-.438.38-.745.47Z" fill="white"></path>
    </g>
    <defs>
      <clipPath id="clip0_15_472">
        <path fill="white" d="M0 0h160v48H0z"></path>
      </clipPath>
    </defs>
  </symbol>
  <symbol fill="none" xmlns="http://www.w3.org/2000/svg" viewBox="0 0 160 48" id="appgallery">
    <path d="M154.074 0H5.926C2.653 0 0 2.686 0 6v36c0 3.314 2.653 6 5.926 6h148.148c3.273 0 5.926-2.686 5.926-6V6c0-3.314-2.653-6-5.926-6Z" fill="black"></path>
    <path d="M154.074.96c1.32 0 2.586.531 3.52 1.476A5.074 5.074 0 0 1 159.052 6v36a5.074 5.074 0 0 1-1.458 3.564 4.948 4.948 0 0 1-3.52 1.476H5.926a4.947 4.947 0 0 1-3.52-1.476A5.072 5.072 0 0 1 .948 42V6c0-1.337.525-2.619 1.458-3.564A4.947 4.947 0 0 1 5.926.96h148.148Zm0-.96H5.926a5.89 5.89 0 0 0-4.19 1.757A6.038 6.038 0 0 0 0 6v36c0 1.591.624 3.117 1.736 4.243A5.889 5.889 0 0 0 5.926 48h148.148a5.887 5.887 0 0 0 4.19-1.757A6.036 6.036 0 0 0 160 42V6a6.036 6.036 0 0 0-1.736-4.243A5.887 5.887 0 0 0 154.074 0Z" fill="#A6A6A6"></path>
    <path fill-rule="evenodd" clip-rule="evenodd" d="M19.1 8.25c-6.392 0-8.73 2.367-8.73 8.837v13.826c0 6.47 2.338 8.837 8.73 8.837h13.648c6.391 0 8.733-2.367 8.733-8.837V17.087c0-6.47-2.337-8.837-8.729-8.837H19.1Z" fill="url(#paint0_linear_15_530)"></path>
    <path fill-rule="evenodd" clip-rule="evenodd" d="M23.941 26.52h1.249l-.627-1.476-.622 1.475Zm-.308.743-.37.858h-.844l1.794-4.12h.73l1.786 4.12h-.866l-.366-.858h-1.864Zm13.576.855h.816V24h-.816v4.118Zm-3.245-1.769h1.503v-.75h-1.503v-.845h2.182v-.751h-2.997v4.118h3.075v-.751h-2.26v-1.02Zm-3.24.487L29.8 24h-.675l-.924 2.836-.9-2.834h-.88l1.42 4.122h.684l.926-2.707.926 2.707h.69l1.416-4.122h-.857l-.902 2.834Zm-9.55-.475c0 .67-.328 1.028-.925 1.028-.6 0-.931-.368-.931-1.057v-2.33h-.827v2.359c0 1.16.637 1.825 1.746 1.825 1.12 0 1.763-.678 1.763-1.86V24h-.826v2.36ZM16.52 24h.825v4.123h-.825v-1.675h-1.866v1.675h-.827V24h.827v1.664h1.866V24ZM25.926 18.75c-2.86 0-5.185-2.355-5.185-5.25h.732c0 2.486 1.998 4.508 4.453 4.508s4.453-2.022 4.453-4.508h.732c0 2.895-2.326 5.25-5.185 5.25Z" fill="white"></path>
    <path d="M54.667 23.694h2.099L62.64 37.5h-2.773l-1.271-3.159h-5.913L51.45 37.5h-2.715l5.932-13.806Zm3.081 8.541-2.1-5.616-2.137 5.616h4.237ZM65.896 28.14v1.306h.058c.115-.181.263-.364.443-.546.192-.194.423-.363.693-.506.27-.156.571-.28.905-.371a4.013 4.013 0 0 1 1.156-.156c.654 0 1.258.13 1.81.39a4.207 4.207 0 0 1 1.425 1.034c.398.442.706.962.925 1.56a5.59 5.59 0 0 1 .327 1.93c0 .689-.11 1.339-.327 1.95a4.683 4.683 0 0 1-.906 1.58c-.385.441-.86.799-1.425 1.072-.552.26-1.18.39-1.887.39a4.028 4.028 0 0 1-1.81-.41 3.091 3.091 0 0 1-1.252-1.111h-.039v5.928h-2.311V28.14h2.215Zm5.392 4.641c0-.364-.057-.721-.173-1.072a2.878 2.878 0 0 0-.481-.976 2.374 2.374 0 0 0-.829-.682c-.333-.182-.725-.273-1.174-.273-.424 0-.803.091-1.137.273a3.044 3.044 0 0 0-.866.702c-.231.286-.411.611-.54.975a3.593 3.593 0 0 0-.173 1.092c0 .364.058.728.173 1.092.129.351.309.67.54.956.244.285.532.52.866.701a2.48 2.48 0 0 0 1.137.254c.45 0 .84-.091 1.174-.273.334-.182.61-.416.829-.702.218-.286.378-.611.481-.975a3.59 3.59 0 0 0 .173-1.092ZM77.89 28.14v1.306h.058c.116-.181.264-.364.444-.546.192-.194.423-.363.693-.506.27-.156.571-.28.905-.371a4.013 4.013 0 0 1 1.156-.156c.654 0 1.258.13 1.81.39a4.207 4.207 0 0 1 1.425 1.034c.398.442.706.962.925 1.56a5.59 5.59 0 0 1 .327 1.93c0 .689-.11 1.339-.327 1.95a4.683 4.683 0 0 1-.906 1.58c-.385.441-.86.799-1.425 1.072-.552.26-1.181.39-1.887.39a4.028 4.028 0 0 1-1.81-.41 3.091 3.091 0 0 1-1.252-1.111h-.039v5.928h-2.311V28.14h2.215Zm5.393 4.641c0-.364-.057-.721-.173-1.072a2.878 2.878 0 0 0-.481-.976 2.374 2.374 0 0 0-.829-.682c-.333-.182-.725-.273-1.174-.273-.424 0-.803.091-1.137.273a3.045 3.045 0 0 0-.866.702c-.232.286-.411.611-.54.975a3.59 3.59 0 0 0-.173 1.092c0 .364.058.728.173 1.092.129.351.308.67.54.956.244.285.532.52.866.701a2.48 2.48 0 0 0 1.137.254c.449 0 .84-.091 1.174-.273.334-.182.61-.416.829-.702.218-.286.378-.611.481-.975a3.59 3.59 0 0 0 .173-1.092ZM99.727 36.779c-.693.337-1.457.597-2.292.78-.821.195-1.772.292-2.85.292-1.104 0-2.112-.175-3.024-.526a7.103 7.103 0 0 1-2.35-1.502 7.072 7.072 0 0 1-1.54-2.301c-.36-.897-.54-1.885-.54-2.964 0-1.105.187-2.1.56-2.983a6.829 6.829 0 0 1 1.56-2.282A7.018 7.018 0 0 1 91.6 23.85c.899-.338 1.874-.507 2.927-.507 1.091 0 2.087.163 2.985.488.912.311 1.644.727 2.196 1.247l-1.676 1.834c-.346-.39-.834-.722-1.463-.995a4.937 4.937 0 0 0-2.023-.41c-.719 0-1.373.13-1.964.39a4.412 4.412 0 0 0-1.483 1.073c-.41.455-.732.988-.963 1.599a5.873 5.873 0 0 0-.327 1.989c0 .741.109 1.424.327 2.047.231.612.552 1.145.963 1.6.424.455.93.812 1.522 1.072.603.247 1.283.37 2.041.37 1.04 0 1.945-.162 2.715-.487v-3.51h-2.87v-2.028h5.22v7.157ZM108.113 36.31h-.057c-.232.416-.604.761-1.117 1.034-.514.26-1.098.39-1.753.39-.372 0-.764-.052-1.175-.156a3.528 3.528 0 0 1-1.117-.468 3.121 3.121 0 0 1-.847-.897c-.219-.377-.328-.839-.328-1.385 0-.702.193-1.26.578-1.677.398-.416.905-.734 1.522-.955a8.115 8.115 0 0 1 2.041-.429 21.635 21.635 0 0 1 2.215-.117v-.234c0-.585-.212-1.014-.636-1.287-.411-.286-.905-.429-1.483-.429-.488 0-.956.104-1.406.312a3.797 3.797 0 0 0-1.117.76l-1.194-1.423a5.225 5.225 0 0 1 1.811-1.111 6.214 6.214 0 0 1 2.099-.371c.822 0 1.496.117 2.022.351.539.234.963.54 1.271.916.308.378.52.8.636 1.268.128.468.192.936.192 1.404V37.5h-2.157v-1.19Zm-.038-3.08h-.52c-.373 0-.764.019-1.175.058-.411.026-.79.098-1.136.215a2.23 2.23 0 0 0-.867.468c-.231.195-.347.468-.347.819 0 .22.045.409.135.565.103.143.231.26.385.351.154.091.328.156.52.195.193.039.386.058.578.058.796 0 1.4-.214 1.811-.643.41-.429.616-1.014.616-1.755v-.331ZM112.809 22.758h2.311V37.5h-2.311V22.758ZM117.77 22.758h2.311V37.5h-2.311V22.758ZM129.201 31.884c0-.299-.044-.585-.134-.858a1.806 1.806 0 0 0-1.079-1.209c-.269-.13-.59-.195-.963-.195-.693 0-1.284.215-1.772.643-.475.416-.738.956-.789 1.619h4.737Zm2.312 1.053v.312c0 .104-.007.208-.02.312h-7.029c.025.338.109.65.25.936.154.273.353.514.597.721.244.195.52.351.828.468.308.117.629.176.963.176.578 0 1.066-.104 1.464-.312.398-.221.725-.52.982-.897l1.541 1.248c-.912 1.248-2.234 1.872-3.968 1.872-.719 0-1.38-.11-1.983-.332a4.901 4.901 0 0 1-1.579-.974 4.534 4.534 0 0 1-1.04-1.521c-.244-.611-.366-1.3-.366-2.067 0-.755.122-1.437.366-2.048a4.659 4.659 0 0 1 1.04-1.58c.436-.442.95-.78 1.54-1.014a5.087 5.087 0 0 1 1.945-.37c.642 0 1.233.11 1.772.331a3.694 3.694 0 0 1 1.425.956c.399.416.707.942.925 1.58.231.623.347 1.358.347 2.203ZM133.558 28.14h2.215v1.56h.039a3.399 3.399 0 0 1 1.078-1.326c.462-.338 1.002-.507 1.618-.507.09 0 .186.006.289.02.103 0 .192.012.269.038v2.145a3.065 3.065 0 0 0-.404-.078 2.45 2.45 0 0 0-.308-.019c-.527 0-.95.098-1.271.293a2.314 2.314 0 0 0-.751.702c-.18.273-.302.552-.366.838a3.324 3.324 0 0 0-.097.683V37.5h-2.311v-9.36Z" fill="white"></path>
    <path d="M138.994 28.14h2.562l2.581 6.806h.038l2.292-6.806h2.407l-4.371 11.368a7.663 7.663 0 0 1-.54 1.131 2.952 2.952 0 0 1-.693.839c-.27.234-.591.41-.963.526-.36.117-.796.176-1.31.176a4.77 4.77 0 0 1-.597-.039 3.371 3.371 0 0 1-.597-.097l.193-2.028c.154.052.302.084.443.097.154.026.295.039.424.039.243 0 .449-.032.616-.098a.927.927 0 0 0 .424-.273c.115-.117.218-.266.308-.448s.186-.396.289-.643l.462-1.19-3.968-9.36ZM57.286 17.629h-1.39V15.53h-5.549v2.098h-1.412l-.046-3.281h.677c.335-.329.603-.805.804-1.43.2-.629.33-1.34.388-2.133L50.978 7h5.312v7.348h1.07l-.074 3.28Zm-6.065-3.281h3.611V8.195h-2.46l-.138 2.403c-.105 1.605-.442 2.855-1.013 3.75ZM58.061 12.303c0-.621.122-1.18.365-1.676.243-.5.584-.883 1.024-1.148.44-.27.945-.405 1.516-.405.845 0 1.53.276 2.055.826.528.551.814 1.282.856 2.192l.006.334c0 .625-.12 1.183-.359 1.676a2.629 2.629 0 0 1-1.018 1.142c-.44.27-.95.404-1.528.404-.884 0-1.592-.296-2.124-.89-.529-.598-.793-1.393-.793-2.385v-.07Zm1.406.123c0 .652.133 1.164.4 1.535.266.367.636.55 1.11.55.475 0 .844-.187 1.106-.562.266-.375.4-.924.4-1.646 0-.64-.137-1.149-.411-1.524a1.29 1.29 0 0 0-1.106-.562c-.459 0-.824.185-1.093.556-.27.368-.406.918-.406 1.653ZM67.644 14.512c.352 0 .643-.104.874-.31.232-.208.355-.464.37-.768h1.326a2.124 2.124 0 0 1-.365 1.107c-.227.34-.536.61-.926.809-.39.199-.81.298-1.261.298-.876 0-1.57-.287-2.084-.86-.513-.575-.77-1.368-.77-2.38v-.146c0-.965.255-1.737.765-2.315.509-.582 1.203-.873 2.083-.873.745 0 1.35.22 1.817.662.47.438.718 1.014.74 1.729H68.89c-.016-.363-.14-.662-.37-.897-.228-.234-.52-.351-.875-.351-.455 0-.806.168-1.053.504-.247.332-.372.838-.376 1.517v.229c0 .687.122 1.201.365 1.54.247.337.602.505 1.064.505ZM76.204 10.322h-2.032v5.21h-1.406v-5.21h-2.008v-1.13h5.446v1.13ZM79.404 13.492l1.273-4.3h1.499l-2.489 7.3c-.382 1.067-1.03 1.6-1.944 1.6a2.49 2.49 0 0 1-.677-.106v-1.101l.266.017c.355 0 .621-.066.799-.199.18-.129.324-.348.428-.656l.202-.545-2.199-6.31h1.517l1.325 4.3ZM88.298 15.531h-1.406V10.34H84.45v5.191h-1.406v-6.34h5.254v6.34ZM95.098 15.531h-1.406v-2.56h-2.436v2.56h-1.407v-6.34h1.407v2.643h2.436V9.191h1.406v6.34ZM96.337 12.303c0-.621.121-1.18.364-1.676.243-.5.585-.883 1.025-1.148.44-.27.945-.405 1.516-.405.845 0 1.529.276 2.054.826.529.551.814 1.282.857 2.192l.005.334c0 .625-.119 1.183-.358 1.676a2.63 2.63 0 0 1-1.019 1.142c-.44.27-.949.404-1.528.404-.883 0-1.591-.296-2.124-.89-.528-.598-.792-1.393-.792-2.385v-.07Zm1.406.123c0 .652.133 1.164.4 1.535.265.367.636.55 1.11.55.475 0 .843-.187 1.106-.562.266-.375.399-.924.399-1.646 0-.64-.137-1.149-.411-1.524a1.29 1.29 0 0 0-1.105-.562c-.46 0-.824.185-1.094.556-.27.368-.405.918-.405 1.653ZM106.406 15.531v-6.34h2.541c.856 0 1.508.153 1.956.457.447.301.671.735.671 1.301 0 .293-.091.557-.272.791-.178.23-.442.408-.793.533.409.086.733.26.972.522s.359.57.359.926c0 .59-.216 1.039-.648 1.347-.428.309-1.046.463-1.852.463h-2.934Zm1.406-2.7v1.575h1.54c.721 0 1.082-.261 1.082-.785 0-.527-.367-.79-1.1-.79h-1.522Zm0-1.02h1.158c.798 0 1.198-.239 1.198-.715 0-.5-.378-.758-1.135-.774h-1.221v1.489Z" fill="white"></path>
    <defs>
      <linearGradient id="paint0_linear_15_530" x1="25.926" y1="8.25" x2="25.926" y2="39.75" gradientUnits="userSpaceOnUse">
        <stop stop-color="#FB6361"></stop>
        <stop offset="1" stop-color="#ED3E45"></stop>
      </linearGradient>
    </defs>
  </symbol>
  <symbol fill="none" xmlns="http://www.w3.org/2000/svg" viewBox="0 0 160 48" id="googleplay">
    
<svg width="160" height="48" viewBox="0 0 160 48" fill="none" xmlns="http://www.w3.org/2000/svg"><path d="M154.074 0H5.926C2.653 0 0 2.686 0 6v36c0 3.314 2.653 6 5.926 6h148.148c3.273 0 5.926-2.686 5.926-6V6c0-3.314-2.653-6-5.926-6Z" fill="black"/><path d="M154.074.96c1.32 0 2.586.531 3.52 1.476A5.074 5.074 0 0 1 159.052 6v36a5.074 5.074 0 0 1-1.458 3.564 4.948 4.948 0 0 1-3.52 1.476H5.926a4.947 4.947 0 0 1-3.52-1.476A5.072 5.072 0 0 1 .948 42V6c0-1.337.525-2.619 1.458-3.564A4.947 4.947 0 0 1 5.926.96h148.148Zm0-.96H5.926a5.89 5.89 0 0 0-4.19 1.757A6.038 6.038 0 0 0 0 6v36c0 1.591.624 3.117 1.736 4.243A5.889 5.889 0 0 0 5.926 48h148.148a5.887 5.887 0 0 0 4.19-1.757A6.036 6.036 0 0 0 160 42V6a6.036 6.036 0 0 0-1.736-4.243A5.887 5.887 0 0 0 154.074 0Z" fill="#A6A6A6"/><path d="M80.759 26.1a4.994 4.994 0 0 0-2.792.871 5.088 5.088 0 0 0-1.845 2.294 5.16 5.16 0 0 0-.277 2.945 5.12 5.12 0 0 0 1.384 2.605 5.018 5.018 0 0 0 2.58 1.389 4.98 4.98 0 0 0 2.906-.295 5.051 5.051 0 0 0 2.257-1.878 5.146 5.146 0 0 0 .847-2.831 5.083 5.083 0 0 0-.366-1.969 5.034 5.034 0 0 0-1.096-1.668 4.962 4.962 0 0 0-1.652-1.102 4.911 4.911 0 0 0-1.946-.361Zm0 8.196a3.028 3.028 0 0 1-1.753-.413 3.081 3.081 0 0 1-1.22-1.34 3.13 3.13 0 0 1 .52-3.444 3.05 3.05 0 0 1 1.56-.91 3.022 3.022 0 0 1 1.795.136 3.065 3.065 0 0 1 1.408 1.135c.346.512.532 1.119.534 1.74a2.986 2.986 0 0 1-.777 2.155c-.265.289-.585.52-.94.682-.355.162-.738.25-1.127.259ZM69.725 26.1a4.994 4.994 0 0 0-2.796.865 5.087 5.087 0 0 0-1.85 2.292 5.159 5.159 0 0 0-.281 2.945 5.12 5.12 0 0 0 1.38 2.608 5.018 5.018 0 0 0 2.58 1.393 4.98 4.98 0 0 0 2.909-.292 5.05 5.05 0 0 0 2.258-1.879 5.145 5.145 0 0 0 .848-2.832 5.083 5.083 0 0 0-.366-1.969 5.034 5.034 0 0 0-1.096-1.668 4.961 4.961 0 0 0-1.652-1.102 4.91 4.91 0 0 0-1.946-.361h.012Zm0 8.196a3.028 3.028 0 0 1-1.756-.407 3.082 3.082 0 0 1-1.225-1.338 3.13 3.13 0 0 1 .512-3.447 3.05 3.05 0 0 1 1.56-.913 3.023 3.023 0 0 1 1.796.133 3.065 3.065 0 0 1 1.41 1.135c.347.512.533 1.12.535 1.741a2.984 2.984 0 0 1-.777 2.155c-.265.289-.585.52-.94.682-.355.162-.738.25-1.127.259h.012ZM56.58 27.672v2.16h5.12a4.551 4.551 0 0 1-1.185 2.724 5.233 5.233 0 0 1-1.808 1.215 5.179 5.179 0 0 1-2.139.369 5.654 5.654 0 0 1-4.023-1.687 5.797 5.797 0 0 1-1.666-4.073c0-1.528.6-2.993 1.666-4.073a5.654 5.654 0 0 1 4.023-1.687 5.416 5.416 0 0 1 3.875 1.548l1.506-1.524a7.45 7.45 0 0 0-2.46-1.673 7.373 7.373 0 0 0-2.91-.571 7.746 7.746 0 0 0-3.09.512 7.822 7.822 0 0 0-2.645 1.697 7.937 7.937 0 0 0-1.777 2.61 8.017 8.017 0 0 0 0 6.214 7.937 7.937 0 0 0 1.777 2.61c.76.74 1.66 1.317 2.646 1.697.985.38 2.036.553 3.09.512a7.033 7.033 0 0 0 2.97-.51 7.107 7.107 0 0 0 2.493-1.71 7.253 7.253 0 0 0 1.85-5.064 7.136 7.136 0 0 0-.12-1.356l-7.193.06Zm53.701 1.68a4.807 4.807 0 0 0-1.658-2.305 4.704 4.704 0 0 0-2.657-.947 4.693 4.693 0 0 0-1.885.392c-.595.26-1.132.64-1.576 1.118a4.847 4.847 0 0 0-1.279 3.59 5.05 5.05 0 0 0 .35 1.96 5 5 0 0 0 1.08 1.666 4.928 4.928 0 0 0 1.638 1.105 4.874 4.874 0 0 0 1.933.369c.829.005 1.646-.2 2.379-.593a5.04 5.04 0 0 0 1.817-1.663l-1.719-1.2a2.888 2.888 0 0 1-1.054 1.04 2.849 2.849 0 0 1-1.423.376 2.535 2.535 0 0 1-1.456-.393 2.582 2.582 0 0 1-.985-1.155l6.743-2.82-.248-.54Zm-6.875 1.704a2.827 2.827 0 0 1 .699-2.048 2.735 2.735 0 0 1 1.933-.928c.382-.026.763.063 1.096.255.333.192.603.479.776.825l-4.504 1.896ZM97.932 36h2.216V21h-2.216v15Zm-3.627-8.76h-.083a3.558 3.558 0 0 0-1.2-.887 3.518 3.518 0 0 0-1.455-.313 5.022 5.022 0 0 0-3.41 1.58 5.147 5.147 0 0 0-1.394 3.526c0 1.313.5 2.575 1.393 3.526a5.022 5.022 0 0 0 3.411 1.58c.503.008 1-.095 1.46-.302a3.44 3.44 0 0 0 1.195-.898h.071v.732c0 1.956-1.03 3-2.69 3a2.762 2.762 0 0 1-1.54-.515 2.816 2.816 0 0 1-.996-1.297l-1.932.816c.364.896.983 1.66 1.78 2.198.795.536 1.732.82 2.688.814 2.596 0 4.74-1.548 4.74-5.316V26.4h-2.038v.84Zm-2.536 7.056a3.056 3.056 0 0 1-1.994-.997 3.13 3.13 0 0 1-.806-2.099c0-.777.287-1.526.806-2.099a3.056 3.056 0 0 1 1.994-.997 2.818 2.818 0 0 1 1.99.974 2.888 2.888 0 0 1 .7 2.122 2.888 2.888 0 0 1-.697 2.133 2.791 2.791 0 0 1-2.005.963h.012ZM120.664 21h-5.298v15h2.216v-5.688h3.094a4.56 4.56 0 0 0 1.863-.254 4.606 4.606 0 0 0 1.608-.985 4.665 4.665 0 0 0 1.086-1.554 4.714 4.714 0 0 0-1.086-5.28 4.606 4.606 0 0 0-1.608-.986 4.56 4.56 0 0 0-1.863-.253h-.012Zm0 7.2h-3.094v-5.112h3.141c.674 0 1.321.271 1.798.754.477.483.744 1.137.744 1.82s-.267 1.337-.744 1.82a2.528 2.528 0 0 1-1.798.754l-.047-.036Zm13.665-2.16a4.105 4.105 0 0 0-2.311.55 4.176 4.176 0 0 0-1.636 1.742l1.968.828c.194-.362.487-.66.845-.855a2.077 2.077 0 0 1 1.17-.249 2.104 2.104 0 0 1 1.585.463 2.165 2.165 0 0 1 .785 1.469v.156a4.847 4.847 0 0 0-2.311-.576c-2.122 0-4.267 1.2-4.267 3.372a3.492 3.492 0 0 0 1.149 2.436 3.41 3.41 0 0 0 2.525.864 3.082 3.082 0 0 0 1.617-.325 3.131 3.131 0 0 0 1.228-1.115h.071V36h2.133v-5.772c0-2.628-1.967-4.152-4.492-4.152l-.059-.036Zm-.273 8.22c-.723 0-1.73-.372-1.73-1.272 0-1.2 1.256-1.596 2.37-1.596.704-.018 1.4.157 2.015.504a2.722 2.722 0 0 1-.854 1.691 2.662 2.662 0 0 1-1.741.709l-.06-.036Zm12.599-7.86-2.536 6.504h-.072l-2.631-6.504h-2.37l3.947 9.096-2.252 5.052h2.311L149.12 26.4h-2.465ZM126.732 36h2.216V21h-2.216v15ZM49.908 17.124h-.877v-2.4h.747a3.473 3.473 0 0 0 .9-2.76V8.4h4.742v6.312h.794v2.4h-.877V15.6h-5.429v1.524ZM51.556 12c.055.968-.18 1.93-.676 2.76h3.556V9.288h-2.88V12ZM63.3 14.664a3.675 3.675 0 0 1-2.607 1.09 3.675 3.675 0 0 1-2.608-1.09 3.914 3.914 0 0 1-1.048-2.67c0-.993.375-1.948 1.048-2.67a3.672 3.672 0 0 1 1.195-.813 3.635 3.635 0 0 1 4.02.813 3.902 3.902 0 0 1 1.053 2.67c0 .994-.377 1.95-1.053 2.67Zm-4.54-.6a2.721 2.721 0 0 0 1.933.808 2.72 2.72 0 0 0 1.931-.808c.507-.565.787-1.3.787-2.064 0-.763-.28-1.499-.787-2.064a2.72 2.72 0 0 0-1.931-.808 2.72 2.72 0 0 0-1.932.808A3.094 3.094 0 0 0 57.975 12c0 .763.28 1.499.787 2.064Zm10.193 1.692c-.489.01-.975-.08-1.429-.266a3.623 3.623 0 0 1-1.211-.813 3.677 3.677 0 0 1-.8-1.229A3.714 3.714 0 0 1 65.258 12a3.714 3.714 0 0 1 .258-1.448c.181-.46.453-.878.799-1.23.345-.35.757-.626 1.211-.812.454-.185.94-.276 1.43-.266.495-.012.987.09 1.44.297.45.208.85.517 1.167.903l-.64.624a2.345 2.345 0 0 0-1.98-.912 2.661 2.661 0 0 0-1.967.792 3.105 3.105 0 0 0-.799 2.082c0 .77.285 1.513.8 2.082a2.686 2.686 0 0 0 1.966.792 2.782 2.782 0 0 0 1.204-.286c.375-.185.705-.452.965-.782l.64.648a3.468 3.468 0 0 1-1.185.936 3.694 3.694 0 0 1-1.612.336Zm6.519-.156h-.913V9.288h-1.99V8.4h4.882v.888h-1.98V15.6Zm8.26-7.2-2.69 6.072c-.108.36-.323.676-.616.906-.293.23-.649.362-1.02.378a1.806 1.806 0 0 1-.71-.156l.237-.852c.144.085.307.13.474.132a.833.833 0 0 0 .497-.12c.143-.122.253-.28.32-.456l.261-.576-2.37-5.316h1.078l1.754 4.128 1.707-4.14h1.079Zm1.032 7.2V8.4h5.143v7.2h-.912V9.288h-3.319V15.6h-.912Zm6.767 0V8.4h.913v3.084H96V8.4h.913v7.2H96v-3.252h-3.555V15.6h-.913Zm12.836-.936a3.677 3.677 0 0 1-2.608 1.09 3.675 3.675 0 0 1-2.607-1.09 3.915 3.915 0 0 1-1.049-2.67c0-.993.375-1.948 1.049-2.67a3.638 3.638 0 0 1 5.215 0 3.903 3.903 0 0 1 1.053 2.67c0 .994-.377 1.95-1.053 2.67Zm-4.54-.6a2.721 2.721 0 0 0 1.932.808c.724 0 1.419-.29 1.932-.808a3.096 3.096 0 0 0 0-4.128 2.721 2.721 0 0 0-1.932-.808c-.724 0-1.418.29-1.932.808A3.093 3.093 0 0 0 99.041 12c0 .763.281 1.499.787 2.064Zm9.316 1.536V8.4h2.572a2.072 2.072 0 0 1 1.446.552 1.826 1.826 0 0 1 .616 1.404c.006.32-.085.634-.261.9a1.651 1.651 0 0 1-.699.588c.344.115.645.333.865.624.228.294.349.658.344 1.032a1.9 1.9 0 0 1-.64 1.464 2.179 2.179 0 0 1-1.517.588l-2.726.048Zm.913-4.116h1.659a1.057 1.057 0 0 0 .829-.348 1.06 1.06 0 0 0 .346-.758 1.074 1.074 0 0 0-.298-.778 1.022 1.022 0 0 0-.794-.348h-1.695l-.047 2.232Zm0 3.228h1.837a1.075 1.075 0 0 0 .853-.372c.209-.22.328-.511.332-.816 0-.318-.125-.623-.347-.848a1.18 1.18 0 0 0-.838-.352h-1.802l-.035 2.388Z" fill="white"/><path fill-rule="evenodd" clip-rule="evenodd" d="M60.694 8.345c-.47 0-.934.094-1.367.276-.433.183-.825.45-1.156.786a3.794 3.794 0 0 0-1.015 2.587c0 .962.363 1.887 1.015 2.586a3.556 3.556 0 0 0 2.523 1.053c.945 0 1.852-.378 2.522-1.053a3.781 3.781 0 0 0 1.02-2.586c0-.963-.365-1.888-1.02-2.586a3.553 3.553 0 0 0-1.156-.787 3.518 3.518 0 0 0-1.366-.276Zm-1.458.055a3.752 3.752 0 0 1 4.15.84v.001a4.023 4.023 0 0 1 1.087 2.753c0 1.025-.389 2.01-1.086 2.753l-.002.002a3.792 3.792 0 0 1-2.691 1.124 3.792 3.792 0 0 1-2.691-1.124L58 14.746a4.035 4.035 0 0 1-1.081-2.752c0-1.024.387-2.008 1.081-2.752l.002-.003c.353-.36.772-.644 1.234-.84Zm42.524-.055c-.469 0-.933.094-1.366.276-.433.183-.826.45-1.156.786a3.794 3.794 0 0 0-1.015 2.587c0 .962.363 1.887 1.015 2.586a3.557 3.557 0 0 0 2.522 1.053c.946 0 1.852-.378 2.523-1.053a3.783 3.783 0 0 0 1.019-2.586c0-.963-.365-1.888-1.019-2.586a3.52 3.52 0 0 0-2.523-1.063Zm-1.457.055a3.746 3.746 0 0 1 2.915 0c.462.195.881.48 1.234.84l.002.001a4.023 4.023 0 0 1 1.085 2.753c0 1.025-.388 2.01-1.085 2.753l-.003.002a3.791 3.791 0 0 1-2.691 1.124 3.792 3.792 0 0 1-2.69-1.124l-.003-.003a4.035 4.035 0 0 1-1.081-2.752c0-1.024.386-2.008 1.08-2.752l.003-.003c.352-.36.772-.644 1.234-.84Zm-29.958.25a3.13 3.13 0 0 0-1.388-.286h-.005a3.47 3.47 0 0 0-2.554 1.044c-.334.34-.597.744-.773 1.189-.176.445-.26.921-.25 1.4v.006a3.59 3.59 0 0 0 1.023 2.59c.334.339.732.606 1.171.786.44.179.91.267 1.383.257l.002.12.003-.12c.537.01 1.07-.1 1.56-.325.409-.197.774-.476 1.073-.82l-.47-.477a2.93 2.93 0 0 1-.922.712c-.391.192-.819.294-1.253.298a2.779 2.779 0 0 1-2.053-.827l-.004-.004a3.227 3.227 0 0 1-.83-2.163c0-.8.296-1.572.83-2.163l.003-.004a2.805 2.805 0 0 1 2.05-.827 2.462 2.462 0 0 1 1.99.856l.468-.456a3.167 3.167 0 0 0-1.054-.786Zm-1.39 7.226a3.703 3.703 0 0 1-1.474-.275 3.742 3.742 0 0 1-1.251-.84 3.798 3.798 0 0 1-.825-1.268A3.835 3.835 0 0 1 65.138 12c-.011-.51.08-1.018.267-1.492.187-.476.468-.907.825-1.27a3.742 3.742 0 0 1 1.25-.84 3.704 3.704 0 0 1 1.474-.274 3.365 3.365 0 0 1 1.49.308c.467.215.88.535 1.209.935l.07.086-.813.793-.081-.104a2.256 2.256 0 0 0-.837-.664 2.228 2.228 0 0 0-1.044-.202h-.009a2.543 2.543 0 0 0-1.878.755 2.985 2.985 0 0 0-.766 1.999c0 .74.273 1.453.766 1.999a2.57 2.57 0 0 0 1.878.755h.002c.4-.004.794-.097 1.153-.274.36-.177.675-.433.925-.749l.082-.105.81.82-.068.084c-.334.41-.752.74-1.226.968l-.002.001a3.81 3.81 0 0 1-1.66.347Zm44.127-6.835a1.954 1.954 0 0 0-1.364-.521h-2.456v6.958l2.606-.046h.004a2.06 2.06 0 0 0 1.435-.556l.002-.003a1.771 1.771 0 0 0 .599-1.37v-.005a1.52 1.52 0 0 0-.318-.956l-.001-.001a1.682 1.682 0 0 0-.808-.583l-.293-.098.282-.126c.263-.117.487-.305.649-.545.162-.246.246-.536.241-.83v-.005a1.697 1.697 0 0 0-.576-1.311l-.002-.002Zm.159-.179a2.191 2.191 0 0 0-1.526-.582h-2.69v7.442l2.843-.05h.002a2.294 2.294 0 0 0 1.596-.619 2.009 2.009 0 0 0 .679-1.553v.002l-.118-.002.118-.003v.003c.006-.4-.124-.79-.368-1.105a1.929 1.929 0 0 0-.68-.565 1.78 1.78 0 0 0 .518-.506l.001-.001c.188-.286.286-.623.281-.967v.002l-.119-.002.119-.002v.002a1.944 1.944 0 0 0-.656-1.494Zm-62.68-.582h4.977v6.312h.794v2.64h-1.114V15.72h-5.191v1.524h-1.114v-2.64h.813c.312-.345.548-.752.693-1.196.15-.46.199-.948.142-1.43V8.28Zm.236.24v3.437c.06.514.007 1.035-.153 1.526a3.562 3.562 0 0 1-.78 1.323l-.035.038h-.68v2.16h.64V15.48h5.666v1.512h.64v-2.16h-.794V8.52h-4.504Zm21.654-.24h5.12v1.128h-1.98v6.312h-1.15V9.408h-1.99V8.28Zm.237.24v.648h1.99v6.312h.676V9.168h1.98V8.52h-4.646Zm9.888-.24h1.34l-2.762 6.234c-.115.38-.344.715-.654.959a1.894 1.894 0 0 1-1.087.403h-.007a1.925 1.925 0 0 1-.757-.166l-.094-.042.306-1.102.132.078c.127.075.27.115.416.116h.008a.715.715 0 0 0 .42-.098c.123-.108.219-.246.278-.401l.003-.007.238-.526-2.424-5.436h1.34l1.675 3.94 1.63-3.952Zm.158.24-1.784 4.328-1.834-4.316H78.3l2.317 5.196-.281.623a1.248 1.248 0 0 1-.353.5l-.007.007-.008.005a.95.95 0 0 1-.564.137 1.067 1.067 0 0 1-.394-.08l-.17.61c.182.067.373.103.567.106.344-.016.676-.14.949-.353.273-.215.474-.51.575-.846l.002-.007 2.618-5.91h-.816Zm1.912-.24h5.38v7.44h-1.149V9.408h-3.081v6.312h-1.15V8.28Zm.237.24v6.96h.676V9.168h3.555v6.312h.676V8.52h-4.907Zm6.53-.24h1.15v3.084h3.319V8.28h1.15v7.44h-1.15v-3.252h-3.319v3.252h-1.15V8.28Zm.238.24v6.96h.675v-3.252h3.793v3.252h.675V8.52h-.675v3.084h-3.793V8.52h-.675ZM58.678 9.851a2.838 2.838 0 0 1 2.016-.843c.755 0 1.48.303 2.015.843l.004.004c.526.588.818 1.352.818 2.145 0 .793-.292 1.557-.818 2.145l-.004.004c-.535.54-1.26.843-2.015.843-.756 0-1.48-.303-2.016-.843l.084-.085-.088.08A3.214 3.214 0 0 1 57.856 12c0-.793.292-1.557.818-2.145l.004-.004Zm.17 4.13c.49.494 1.154.77 1.846.77.691 0 1.355-.276 1.846-.77A2.973 2.973 0 0 0 63.294 12c0-.732-.269-1.438-.754-1.981a2.603 2.603 0 0 0-1.846-.77c-.692 0-1.356.276-1.847.77A2.973 2.973 0 0 0 58.093 12c0 .732.27 1.438.754 1.981Zm40.897-4.13a2.838 2.838 0 0 1 2.015-.843c.756 0 1.48.303 2.016.843l.004.004c.526.588.817 1.352.817 2.145 0 .793-.291 1.557-.817 2.145l-.004.004c-.535.54-1.26.843-2.016.843-.755 0-1.48-.303-2.015-.843l.083-.085-.087.08A3.214 3.214 0 0 1 98.923 12c0-.793.291-1.557.818-2.145l.004-.004Zm.17 4.13c.49.494 1.153.77 1.845.77s1.356-.276 1.846-.77A2.97 2.97 0 0 0 104.36 12a2.97 2.97 0 0 0-.754-1.981 2.601 2.601 0 0 0-1.846-.77c-.692 0-1.355.276-1.846.77A2.973 2.973 0 0 0 99.16 12c0 .732.269 1.438.754 1.981Zm11.882-4.849a1.124 1.124 0 0 1 .883.386 1.194 1.194 0 0 1 .222 1.325 1.18 1.18 0 0 1-.273.378 1.19 1.19 0 0 1-.916.383h-1.778l.053-2.472h1.809Zm.39.315a.892.892 0 0 0-.385-.075H110.22l-.042 1.992h1.543a.936.936 0 0 0 .737-.31l.004-.003.004-.004a.953.953 0 0 0 .042-1.363l-.004-.004a.908.908 0 0 0-.317-.233Zm-60.75-.279h3.117v5.712H50.67l.109-.182a4.726 4.726 0 0 0 .658-2.691V9.168Zm.237.24v2.589a4.97 4.97 0 0 1-.589 2.643h3.232V9.408h-2.643Zm58.301 2.796h1.919c.345 0 .677.14.921.387.245.247.382.583.382.933v.002a1.324 1.324 0 0 1-.363.896 1.21 1.21 0 0 1-.942.41h-1.956l.039-2.628Zm.234.24-.032 2.148h1.721a.956.956 0 0 0 .76-.332l.004-.003a1.09 1.09 0 0 0 .298-.734c0-.286-.112-.56-.312-.763a1.061 1.061 0 0 0-.754-.316h-1.685Z" fill="white"/><path d="M12.373 9.048a2.42 2.42 0 0 0-.545 1.68v26.544a2.42 2.42 0 0 0 .545 1.68l.083.084L27.141 24.18v-.348L12.456 8.964l-.083.084Z" fill="url(#paint0_linear_15_494)"/><path d="m32 29.136-4.86-4.956v-.348L32 18.864l.106.06 5.82 3.348c1.66.948 1.66 2.508 0 3.468l-5.796 3.336-.13.06Z" fill="url(#paint1_linear_15_494)"/><path d="M32.142 29.064 27.141 24 12.373 38.952a1.918 1.918 0 0 0 2.465.072l17.316-9.96" fill="url(#paint2_linear_15_494)"/><path d="m32.142 18.936-17.315-9.96a1.916 1.916 0 0 0-2.466.072L27.141 24l5.001-5.064Z" fill="url(#paint3_linear_15_494)"/><path opacity=".2" d="m32 28.956-17.173 9.9a1.964 1.964 0 0 1-2.37 0l-.084.084.083.084a1.951 1.951 0 0 0 2.37 0l17.316-9.96-.142-.108Z" fill="black"/><path opacity=".12" d="M12.373 38.784a2.42 2.42 0 0 1-.545-1.68v.18a2.42 2.42 0 0 0 .545 1.68l.083-.084-.083-.096ZM37.926 25.56 32 28.956l.107.108 5.819-3.336c.33-.157.613-.4.822-.703.208-.303.333-.657.363-1.025a2.244 2.244 0 0 1-.414.92c-.205.27-.469.489-.771.64Z" fill="black"/><path opacity=".25" d="M14.827 9.144 37.926 22.44c.302.15.566.37.771.64.206.27.347.585.414.92a2.116 2.116 0 0 0-.363-1.026 2.08 2.08 0 0 0-.822-.702l-23.1-13.296c-1.659-.948-3.01-.156-3.01 1.764v.18c.036-1.932 1.363-2.724 3.01-1.776Z" fill="white"/><defs><linearGradient id="paint0_linear_15_494" x1="25.837" y1="10.452" x2="5.702" y2="30.338" gradientUnits="userSpaceOnUse"><stop stop-color="#00A0FF"/><stop offset=".01" stop-color="#00A1FF"/><stop offset=".26" stop-color="#00BEFF"/><stop offset=".51" stop-color="#00D2FF"/><stop offset=".76" stop-color="#00DFFF"/><stop offset="1" stop-color="#00E3FF"/></linearGradient><linearGradient id="paint1_linear_15_494" x1="40.095" y1="24" x2="11.425" y2="24" gradientUnits="userSpaceOnUse"><stop stop-color="#FFE000"/><stop offset=".41" stop-color="#FFBD00"/><stop offset=".78" stop-color="#FFA500"/><stop offset="1" stop-color="#FF9C00"/></linearGradient><linearGradient id="paint2_linear_15_494" x1="29.428" y1="26.76" x2="2.118" y2="53.721" gradientUnits="userSpaceOnUse"><stop stop-color="#FF3A44"/><stop offset="1" stop-color="#C31162"/></linearGradient><linearGradient id="paint3_linear_15_494" x1="8.652" y1=".216" x2="20.843" y2="12.257" gradientUnits="userSpaceOnUse"><stop stop-color="#32A071"/><stop offset=".07" stop-color="#2DA771"/><stop offset=".48" stop-color="#15CF74"/><stop offset=".8" stop-color="#06E775"/><stop offset="1" stop-color="#00F076"/></linearGradient></defs></svg>
  </symbol>
  <symbol fill="none" xmlns="http://www.w3.org/2000/svg" viewBox="0 0 160 48" id="appstore">
    <path d="M154.074 0H5.926C2.653 0 0 2.686 0 6v36c0 3.314 2.653 6 5.926 6h148.148c3.273 0 5.926-2.686 5.926-6V6c0-3.314-2.653-6-5.926-6Z" fill="black"></path>
    <path d="M154.074.96c1.32 0 2.586.531 3.52 1.476A5.074 5.074 0 0 1 159.052 6v36a5.074 5.074 0 0 1-1.458 3.564 4.948 4.948 0 0 1-3.52 1.476H5.926a4.947 4.947 0 0 1-3.52-1.476A5.072 5.072 0 0 1 .948 42V6c0-1.337.525-2.619 1.458-3.564A4.947 4.947 0 0 1 5.926.96h148.148Zm0-.96H5.926a5.89 5.89 0 0 0-4.19 1.757A6.038 6.038 0 0 0 0 6v36c0 1.591.624 3.117 1.736 4.243A5.889 5.889 0 0 0 5.926 48h148.148a5.887 5.887 0 0 0 4.19-1.757A6.036 6.036 0 0 0 160 42V6a6.036 6.036 0 0 0-1.736-4.243A5.887 5.887 0 0 0 154.074 0Z" fill="#A6A6A6"></path>
    <path d="M38.06 23.176c-.033-3.685 2.98-5.478 3.118-5.562-1.707-2.519-4.351-2.863-5.28-2.89-2.222-.237-4.377 1.346-5.508 1.346-1.154 0-2.897-1.323-4.775-1.284-2.416.037-4.677 1.454-5.917 3.654-2.559 4.485-.65 11.077 1.801 14.702 1.227 1.776 2.66 3.759 4.535 3.689 1.835-.077 2.52-1.185 4.735-1.185 2.194 0 2.838 1.185 4.751 1.14 1.97-.032 3.21-1.783 4.393-3.575 1.417-2.035 1.986-4.04 2.009-4.142-.046-.017-3.825-1.477-3.862-5.893ZM34.446 12.339c.987-1.25 1.662-2.95 1.475-4.676-1.429.065-3.215 1-4.244 2.223-.91 1.077-1.723 2.843-1.513 4.503 1.605.121 3.252-.82 4.282-2.05ZM64.616 36.576h-2.565l-1.404-4.47h-4.883l-1.338 4.47h-2.497l4.838-15.216h2.988l4.861 15.216Zm-4.393-6.345-1.27-3.973c-.135-.406-.386-1.362-.758-2.866h-.045a111.82 111.82 0 0 1-.714 2.866l-1.248 3.973h4.035ZM77.057 30.955c0 1.866-.498 3.34-1.494 4.424-.892.963-2 1.445-3.323 1.445-1.427 0-2.452-.52-3.077-1.557h-.045v5.78h-2.407V29.215c0-1.173-.031-2.377-.09-3.612h2.118l.134 1.739h.045c.803-1.31 2.021-1.964 3.657-1.964 1.278 0 2.345.51 3.199 1.534.856 1.024 1.283 2.371 1.283 4.042Zm-2.453.09c0-1.069-.237-1.95-.714-2.642-.52-.723-1.22-1.084-2.096-1.084-.594 0-1.133.201-1.616.598-.483.4-.8.923-.947 1.57a3.225 3.225 0 0 0-.112.743v1.83c0 .797.242 1.47.725 2.02.484.55 1.111.825 1.884.825.907 0 1.612-.354 2.117-1.06.506-.709.759-1.642.759-2.8ZM89.52 30.955c0 1.866-.498 3.34-1.495 4.424-.89.963-1.998 1.445-3.32 1.445-1.428 0-2.454-.52-3.077-1.557h-.045v5.78h-2.407V29.215c0-1.173-.031-2.377-.09-3.612h2.118l.134 1.739h.045c.802-1.31 2.02-1.964 3.657-1.964 1.277 0 2.344.51 3.2 1.534.853 1.024 1.28 2.371 1.28 4.042Zm-2.452.09c0-1.069-.239-1.95-.715-2.642-.52-.723-1.217-1.084-2.095-1.084-.595 0-1.133.201-1.617.598-.483.4-.798.923-.946 1.57a3.292 3.292 0 0 0-.112.743v1.83c0 .797.242 1.47.723 2.02.483.55 1.11.825 1.886.825.906 0 1.612-.354 2.117-1.06.506-.709.759-1.642.759-2.8ZM103.456 32.309c0 1.294-.444 2.347-1.335 3.16-.979.888-2.342 1.332-4.094 1.332-1.617 0-2.913-.316-3.895-.948l.558-2.032a6.538 6.538 0 0 0 3.48.972c.907 0 1.613-.208 2.12-.622.505-.414.757-.97.757-1.662 0-.618-.208-1.138-.625-1.56-.414-.422-1.106-.814-2.073-1.176-2.631-.994-3.946-2.45-3.946-4.363 0-1.251.461-2.277 1.384-3.075.92-.8 2.145-1.198 3.679-1.198 1.367 0 2.504.241 3.41.723l-.602 1.987c-.847-.467-1.804-.7-2.876-.7-.847 0-1.508.211-1.983.632-.4.376-.602.835-.602 1.378 0 .601.23 1.099.69 1.49.401.361 1.13.752 2.187 1.174 1.293.527 2.242 1.143 2.853 1.85.609.704.913 1.586.913 2.638ZM111.416 27.433h-2.654v5.327c0 1.355.467 2.032 1.405 2.032.43 0 .787-.038 1.069-.113l.067 1.851c-.475.18-1.099.27-1.873.27-.951 0-1.694-.294-2.23-.88-.534-.588-.803-1.574-.803-2.958v-5.53h-1.581v-1.83h1.581v-2.01l2.365-.722v2.732h2.654v1.831ZM123.389 31c0 1.686-.476 3.07-1.427 4.154-.997 1.114-2.321 1.67-3.971 1.67-1.59 0-2.856-.534-3.8-1.602s-1.416-2.416-1.416-4.04c0-1.7.486-3.093 1.46-4.176.973-1.084 2.285-1.626 3.935-1.626 1.59 0 2.869.534 3.835 1.603.923 1.037 1.384 2.376 1.384 4.017Zm-2.498.078c0-1.011-.213-1.88-.646-2.603-.505-.876-1.226-1.313-2.161-1.313-.968 0-1.703.438-2.208 1.313-.432.725-.646 1.606-.646 2.65 0 1.011.214 1.879.646 2.602.521.875 1.248 1.312 2.186 1.312.92 0 1.641-.446 2.162-1.335.444-.738.667-1.615.667-2.626ZM131.215 27.748a4.14 4.14 0 0 0-.759-.068c-.847 0-1.502.324-1.963.972-.401.572-.602 1.294-.602 2.167v5.757h-2.406l.022-7.517c0-1.264-.03-2.416-.09-3.454h2.097l.088 2.1h.067c.254-.722.655-1.303 1.204-1.739.536-.392 1.115-.587 1.74-.587.222 0 .423.016.602.044v2.325ZM141.982 30.57c0 .438-.028.806-.088 1.106h-7.223c.028 1.084.377 1.913 1.048 2.485.609.511 1.396.767 2.363.767 1.069 0 2.045-.172 2.922-.519l.377 1.692c-1.025.453-2.236.678-3.633.678-1.68 0-2.999-.5-3.959-1.501-.957-1-1.437-2.344-1.437-4.03 0-1.654.446-3.031 1.339-4.13.935-1.173 2.199-1.76 3.789-1.76 1.561 0 2.744.587 3.547 1.76.635.932.955 2.084.955 3.453Zm-2.296-.631c.016-.723-.141-1.347-.467-1.875-.417-.677-1.057-1.016-1.919-1.016-.787 0-1.427.33-1.916.994-.401.527-.639 1.159-.713 1.895h5.015v.002ZM60.56 17.641h-1.252V15.75h-5.004v1.891H53.03l-.042-2.958h.61c.303-.296.545-.726.726-1.29a8.33 8.33 0 0 0 .35-1.922l.198-3.413h4.79v6.625h.965l-.068 2.958Zm-5.468-2.958h3.256V9.135H56.13l-.125 2.167c-.094 1.447-.399 2.574-.913 3.38ZM61.794 12.839c0-.56.11-1.064.328-1.511a2.4 2.4 0 0 1 .924-1.036 2.563 2.563 0 0 1 1.367-.364c.762 0 1.38.248 1.853.745.476.496.733 1.155.772 1.976l.005.3c0 .564-.108 1.068-.324 1.512a2.37 2.37 0 0 1-.918 1.03c-.397.243-.856.365-1.377.365-.797 0-1.435-.268-1.916-.803-.476-.54-.714-1.256-.714-2.15v-.064Zm1.268.11c0 .59.12 1.05.36 1.385.24.331.574.497 1.002.497.427 0 .76-.17.996-.508.24-.338.36-.832.36-1.484 0-.578-.123-1.036-.37-1.374a1.163 1.163 0 0 0-.997-.507c-.414 0-.743.167-.986.502-.244.331-.365.828-.365 1.49ZM70.969 14.83c.317 0 .58-.093.788-.28a.961.961 0 0 0 .334-.691h1.195a1.916 1.916 0 0 1-.329.998c-.205.307-.483.55-.835.73-.351.179-.73.269-1.137.269-.79 0-1.416-.26-1.879-.777-.462-.518-.694-1.233-.694-2.145v-.132c0-.87.23-1.566.689-2.087.46-.525 1.085-.787 1.878-.787.672 0 1.218.199 1.639.597.424.394.647.914.668 1.558H72.09a1.177 1.177 0 0 0-.334-.808 1.05 1.05 0 0 0-.788-.317c-.41 0-.727.152-.95.454-.222.3-.335.756-.339 1.369v.206c0 .62.11 1.083.329 1.39.222.302.543.454.96.454ZM79.22 11.053h-1.83v4.697H76.12v-4.697h-1.81v-1.02h4.91v1.02ZM82.64 13.911l1.149-3.877h1.351l-2.244 6.582c-.344.962-.928 1.443-1.753 1.443-.184 0-.388-.032-.61-.095v-.994l.24.016c.32 0 .56-.06.72-.18.163-.116.292-.313.386-.591l.182-.491-1.982-5.69h1.367l1.195 3.877ZM91.195 15.75h-1.268v-4.681h-2.202v4.681h-1.268v-5.716h4.738v5.716ZM97.86 15.75h-1.267v-2.309h-2.197v2.309h-1.268v-5.716h1.268v2.382h2.197v-2.383h1.267v5.717ZM99.511 12.839c0-.56.11-1.064.33-1.511.218-.45.526-.796.923-1.036a2.561 2.561 0 0 1 1.367-.364c.762 0 1.379.248 1.852.745.477.496.734 1.155.773 1.976l.005.3c0 .564-.108 1.068-.324 1.512a2.368 2.368 0 0 1-.918 1.03c-.397.243-.856.365-1.378.365-.796 0-1.435-.268-1.915-.803-.476-.54-.715-1.256-.715-2.15v-.064Zm1.268.11c0 .59.121 1.05.361 1.385.24.331.574.497 1.001.497.428 0 .76-.17.997-.508.24-.338.36-.832.36-1.484 0-.578-.123-1.036-.37-1.374a1.165 1.165 0 0 0-.997-.507c-.414 0-.743.167-.986.502-.244.331-.366.828-.366 1.49ZM109.66 15.75v-5.716h2.29c.772 0 1.36.137 1.764.412.403.27.605.662.605 1.172 0 .265-.082.502-.245.714-.16.207-.398.368-.715.48.369.078.661.235.877.47a1.2 1.2 0 0 1 .323.835c0 .532-.195.937-.584 1.216-.386.278-.943.417-1.67.417h-2.645Zm1.267-2.436v1.422h1.388c.651 0 .976-.236.976-.708 0-.476-.33-.714-.991-.714h-1.373Zm0-.919h1.044c.72 0 1.08-.215 1.08-.644 0-.451-.341-.684-1.023-.698h-1.101v1.342Z" fill="white"></path>
  </symbol>
</svg>
