<svg width="152" height="44" viewBox="0 0 152 44" fill="none" xmlns="http://www.w3.org/2000/svg"><path d="M152 15.697V28.6h-2.814V15.697H152ZM142.778 15.697v9.65c0 .31.086.548.259.71.173.162.42.243.741.243h4.461l.13 2.15c-.876.1-1.796.156-2.759.169-.95.025-1.9.037-2.851.037-.925 0-1.629-.25-2.11-.748-.469-.511-.704-1.16-.704-1.945V15.697h2.833ZM134.737 15.697c.234 0 .438.069.611.206a.98.98 0 0 1 .37.542l3.703 12.155h-2.889l-2.61-9.48-.148-.637c-.05-.224-.093-.436-.13-.636h-.5c-.037.2-.08.412-.129.636a6.087 6.087 0 0 1-.148.636l-2.611 9.481h-2.907l3.722-12.155c.061-.224.179-.405.352-.542.185-.138.394-.206.629-.206h2.685Zm1.962 7.35v2.15h-6.628v-2.15h6.628ZM122.376 15.547c1.11 0 1.993.1 2.647.3.667.187 1.148.523 1.444 1.01.296.486.445 1.171.445 2.056 0 .923-.179 1.627-.537 2.113-.346.474-.92.748-1.722.823v.113c.987.087 1.678.423 2.073 1.01.395.573.593 1.377.593 2.412 0 .885-.154 1.57-.463 2.057-.296.486-.765.829-1.407 1.028-.63.187-1.457.28-2.481.28-.827 0-1.549-.006-2.166-.018-.605 0-1.167-.013-1.685-.038a77.673 77.673 0 0 1-1.592-.093l.277-1.982c.297.012.864.025 1.704.037.851.013 1.839.019 2.962.019.518 0 .926-.05 1.222-.15.296-.1.5-.28.611-.542.123-.274.185-.66.185-1.16 0-.535-.062-.94-.185-1.215a1.067 1.067 0 0 0-.648-.598c-.296-.113-.71-.175-1.24-.187h-4.629v-1.814h4.592c.456-.013.814-.063 1.073-.15a.897.897 0 0 0 .574-.505c.111-.25.167-.598.167-1.047 0-.461-.062-.81-.185-1.047a.902.902 0 0 0-.593-.505c-.284-.087-.679-.13-1.185-.13h-1.833c-.53 0-1.005.005-1.425.018-.42 0-.809.012-1.167.037l-.277-1.982c.493-.05.969-.081 1.425-.093.469-.025.975-.038 1.519-.038a84.192 84.192 0 0 1 1.907-.019Zm-2.074.15V28.6h-2.777V15.697h2.777ZM112.279 15.697a.95.95 0 0 1 .611.206.977.977 0 0 1 .371.542l3.703 12.155h-2.889l-2.61-9.48-.148-.637c-.05-.224-.093-.436-.13-.636h-.5c-.037.2-.08.412-.129.636a5.85 5.85 0 0 1-.149.636l-2.61 9.481h-2.907l3.722-12.155c.061-.224.179-.405.351-.542a1.03 1.03 0 0 1 .63-.206h2.684Zm1.963 7.35v2.15h-6.628v-2.15h6.628ZM104.361 15.697v11.875c0 .685-.339 1.028-1.018 1.028h-1.555c-.309 0-.543-.069-.704-.206-.16-.15-.308-.367-.444-.654l-3.536-6.77a14.028 14.028 0 0 1-.445-.953 14.26 14.26 0 0 1-.352-1.01h-.203c.037.336.068.68.092 1.028.025.337.037.674.037 1.01V28.6H93.55V16.725c0-.685.345-1.028 1.037-1.028h1.536c.296 0 .519.075.667.224.16.137.315.35.463.636l3.425 6.564a24.038 24.038 0 0 1 .926 2.038h.222a40.212 40.212 0 0 1-.093-1.084 32.143 32.143 0 0 1-.018-1.066l-.019-7.312h2.666ZM91.716 15.697V28.6h-2.814V15.697h2.814ZM82.494 15.697v9.65c0 .31.086.548.259.71.173.162.42.243.74.243h4.462l.13 2.15c-.876.1-1.796.156-2.759.169-.95.025-1.9.037-2.85.037-.927 0-1.63-.25-2.112-.748-.469-.511-.703-1.16-.703-1.945V15.697h2.833ZM74.452 15.697c.235 0 .439.069.611.206a.98.98 0 0 1 .37.542L79.137 28.6h-2.888l-2.61-9.48-.148-.637c-.05-.224-.093-.436-.13-.636h-.5c-.037.2-.08.412-.13.636a5.916 5.916 0 0 1-.148.636l-2.61 9.481h-2.907l3.722-12.155c.061-.224.178-.405.351-.542a1.03 1.03 0 0 1 .63-.206h2.684Zm1.963 7.35v2.15h-6.628v-2.15h6.628ZM68.333 15.697l-3.48 12.118a1.072 1.072 0 0 1-.37.56.929.929 0 0 1-.63.225H61.26c-.26 0-.482-.075-.667-.224a1.01 1.01 0 0 1-.333-.561l-3.5-12.118h2.926l2.333 9.313c.05.236.098.48.148.729.062.237.111.474.148.71h.481c.037-.236.08-.48.13-.729.062-.25.123-.492.185-.73l2.314-9.293h2.907Z" fill="white"/><g clip-path="url(#clip0_15_729)"><path fill="url(#paint0_linear_15_729)" d="M0 0h44v44H0z"/><path d="M13.412 22.104c-3.134.014-6.038.65-7.454 1.093 0 0 12.844 2.18 13.912 11.046C10.11 20.171-.536 37.19-.536 37.19c2.22-.582 8.576-2.31 12.82-1.582 2.904.5 5.734 3.132 5.612 3.099-6.92 1.702-17.914 32.5-16.047 35.002 1.664 1.913 3.33 1.26 4.996.29.824-6.527 7.255-35.165 15.124-32.853h.003c.662.226 1.29.624 1.323 1.232.065 1.157-.682 3.05-.506 4.364.41 3.05 1.006 4.11 1.875 5.174 2.074-1.166 4.058-5.369 4.468-7.548 1.859.813 4.846 2.698 7.283 9.698 1.274-6.56-.563-11.733-6.595-14.031 2.612-1.129 13.981 4.584 15.369 7.768 1.35-5.741-8.2-12.767-16.15-12.394 1.524-.397 3.199.067 4.793-1.106 2.139-1.575 4.633-2.932 6.957-4.389-7.817-3.4-15.03-1.721-15.539 1.798-.399-7.81-6.46-9.63-11.838-9.608Z" fill="white"/></g><defs><linearGradient id="paint0_linear_15_729" x1="22" y1="0" x2="22" y2="44" gradientUnits="userSpaceOnUse"><stop stop-color="#FAAD66"/><stop offset=".845" stop-color="#F849C7"/></linearGradient><clipPath id="clip0_15_729"><path fill="white" d="M0 0h44v44H0z"/></clipPath></defs></svg>