<svg width="0" height="0" class="hidden">
  <symbol fill="none" xmlns="http://www.w3.org/2000/svg" viewBox="0 0 55 17" id="visa">
    <path d="M24.04 16.642h-4.425L22.383.774h4.426L24.04 16.642ZM40.084 1.163c-.873-.32-2.257-.675-3.97-.675-4.37 0-7.448 2.16-7.467 5.249-.036 2.279 2.204 3.545 3.88 4.304 1.711.777 2.294 1.284 2.294 1.976-.018 1.063-1.384 1.553-2.658 1.553-1.767 0-2.714-.253-4.153-.844l-.583-.254-.619 3.562c1.038.438 2.95.827 4.936.844 4.644 0 7.667-2.127 7.703-5.418.018-1.807-1.165-3.19-3.715-4.321-1.548-.726-2.496-1.216-2.496-1.959.018-.675.802-1.367 2.55-1.367a8.027 8.027 0 0 1 3.296.608l.4.168.602-3.426ZM45.966 11.02c.365-.91 1.767-4.439 1.767-4.439-.018.034.364-.928.583-1.519l.309 1.368s.838 3.797 1.02 4.59h-3.679ZM51.43.776h-3.423c-1.056 0-1.858.287-2.313 1.317l-6.574 14.55h4.644l.929-2.38h5.682c.127.556.528 2.38.528 2.38H55L51.43.774ZM15.918.775l-4.334 10.82-.473-2.195c-.802-2.532-3.315-5.282-6.12-6.65l3.97 13.875h4.68L20.599.775h-4.68Z" fill="#666870"></path>
    <path d="M7.56.775H.438l-.073.32C5.92 2.414 9.599 5.587 11.11 9.402L9.562 2.109C9.308 1.096 8.524.809 7.56.775Z" fill="#C3C0C0"></path>
  </symbol>
  <symbol fill="none" xmlns="http://www.w3.org/2000/svg" viewBox="0 0 56 16" id="mir">
    <g clip-path="url(#clip0_15_468)">
      <path d="M15.09.003V.01c-.006 0-2.188-.007-2.77 2.096a2232.41 2232.41 0 0 1-2.077 7.396h-.415s-1.537-5.44-2.077-7.403C7.169-.003 4.98.003 4.98.003H0v15.994h4.983V6.498H5.4l2.908 9.498h3.46l2.908-9.491h.416v9.491h4.983V.003H15.09Zm18.205 0s-1.461.133-2.147 1.677L27.62 9.502h-.415V.003H22.22v15.993h4.707s1.53-.14 2.216-1.676l3.46-7.822h.415v9.498h4.983V.003h-4.706Zm6.922 7.263v8.73H45.2V10.9H50.6c2.354 0 4.346-1.516 5.087-3.63H40.217v-.003Z" fill="#666870"></path>
      <path d="M50.601.003H39.518c.554 3.046 2.818 5.49 5.745 6.285a7.9 7.9 0 0 0 2.084.28h8.542c.076-.363.11-.734.11-1.118C56 2.442 53.584.003 50.602.003Z" fill="#C3C0C0"></path>
    </g>
    <defs>
      <clipPath id="clip0_15_468">
        <path fill="white" d="M0 0h56v16H0z"></path>
      </clipPath>
    </defs>
  </symbol>
  <symbol fill="none" xmlns="http://www.w3.org/2000/svg" viewBox="0 0 51 32" id="mastercard">
    <path d="M32.075 28.232h-13.61V3.772h13.61v24.46Z" fill="#C3C0C0"></path>
    <path d="M19.337 16a15.53 15.53 0 0 1 5.94-12.23A15.487 15.487 0 0 0 15.665.444C7.075.444.11 7.41.11 16s6.963 15.556 15.554 15.556c3.628 0 6.967-1.244 9.613-3.326A15.53 15.53 0 0 1 19.337 16Z" fill="#414349"></path>
    <path d="M50.43 16c0 8.591-6.963 15.556-15.553 15.556a15.492 15.492 0 0 1-9.614-3.326A15.527 15.527 0 0 0 31.204 16c0-4.962-2.323-9.381-5.941-12.23A15.492 15.492 0 0 1 34.876.444C43.466.444 50.43 7.41 50.43 16Z" fill="#6B6D75"></path>
  </symbol>
</svg>