<svg width="0" height="0" class="hidden">
  <symbol fill="none" xmlns="http://www.w3.org/2000/svg" viewBox="0 0 16 16" id="tg">
    <path d="M1.675 7.453c3.937-1.788 6.562-2.966 7.876-3.535C13.3 2.292 14.081 2.01 14.589 2c.111-.002.361.027.523.164a.602.602 0 0 1 .192.381c.018.11.04.359.023.554-.203 2.225-1.083 7.626-1.53 10.118-.19 1.055-.562 1.409-.923 1.443-.784.076-1.38-.54-2.14-1.059-1.188-.812-1.86-1.317-3.013-2.11-1.334-.915-.47-1.418.29-2.24.2-.216 3.655-3.492 3.722-3.789.008-.037.016-.175-.063-.249-.08-.073-.196-.048-.28-.028-.119.028-2.018 1.336-5.696 3.924-.54.386-1.028.574-1.465.564-.482-.011-1.41-.284-2.1-.518C1.285 8.87.613 8.717.67 8.231c.03-.254.366-.513 1.005-.778Z" fill="#F4F4F5"></path>
  </symbol>
  <symbol fill="none" xmlns="http://www.w3.org/2000/svg" viewBox="0 0 18 18" id="youtube 1">
    <path d="M17.091 4.95a2.114 2.114 0 0 0-1.487-1.488c-1.32-.361-6.602-.361-6.602-.361s-5.283 0-6.603.347A2.157 2.157 0 0 0 .912 4.95C.564 6.27.564 9.008.564 9.008s0 2.753.348 4.06a2.115 2.115 0 0 0 1.487 1.487c1.334.361 6.603.361 6.603.361s5.282 0 6.602-.348a2.114 2.114 0 0 0 1.488-1.487c.347-1.32.347-4.059.347-4.059s.014-2.752-.348-4.072Z" fill="#F4F4F5"></path>
    <path d="m7.321 11.538 4.393-2.53-4.393-2.53v5.06Z" fill="black"></path>
  </symbol>
  <symbol fill="none" xmlns="http://www.w3.org/2000/svg" viewBox="0 0 18 18" id="vk">
    <path fill-rule="evenodd" clip-rule="evenodd" d="M16.87 4.461c.115-.41 0-.71-.546-.71H14.52c-.459 0-.67.26-.785.546 0 0-.918 2.398-2.219 3.955-.42.451-.612.594-.841.594-.115 0-.28-.143-.28-.553V4.461c0-.492-.134-.71-.517-.71H7.041a.45.45 0 0 0-.46.444c0 .466.65.574.718 1.885v2.848c0 .625-.105.738-.335.738-.612 0-2.1-2.408-2.983-5.164-.173-.535-.347-.752-.808-.752H1.368c-.516 0-.62.26-.62.547 0 .513.613 3.054 2.85 6.414 1.492 2.295 3.593 3.54 5.506 3.54 1.147 0 1.29-.277 1.29-.753v-1.734c0-.553.108-.663.471-.663.268 0 .727.143 1.798 1.25 1.224 1.31 1.425 1.9 2.114 1.9h1.805c.516 0 .774-.277.625-.822-.163-.544-.747-1.332-1.523-2.267-.42-.533-1.051-1.107-1.242-1.393-.268-.37-.192-.533 0-.86 0 0 2.199-3.32 2.428-4.448Z" fill="#F4F4F5"></path>
  </symbol>
</svg>